<svg width="200" height="200" viewBox="0 0 200 200" fill="none" xmlns="http://www.w3.org/2000/svg">
<path d="M183.333 20H166.667V13.3333C166.667 9.79711 165.262 6.40573 162.761 3.90524C160.261 1.40476 156.87 0 153.333 0C149.797 0 146.406 1.40476 143.905 3.90524C141.405 6.40573 140 9.79711 140 13.3333V20H113.333V13.3333C113.333 9.79711 111.929 6.40573 109.428 3.90524C106.928 1.40476 103.536 0 100 0C96.4638 0 93.0724 1.40476 90.5719 3.90524C88.0714 6.40573 86.6667 9.79711 86.6667 13.3333V20H60V13.3333C60 9.79711 58.5952 6.40573 56.0948 3.90524C53.5943 1.40476 50.2029 0 46.6667 0C43.1304 0 39.7391 1.40476 37.2386 3.90524C34.7381 6.40573 33.3333 9.79711 33.3333 13.3333V20H16.6667C12.2464 20 8.00716 21.7559 4.88155 24.8815C1.75595 28.0072 0 32.2464 0 36.6667V170C0 174.42 1.75595 178.659 4.88155 181.785C8.00716 184.911 12.2464 186.667 16.6667 186.667H110C110.884 186.667 111.732 186.315 112.357 185.69C112.982 185.065 113.333 184.217 113.333 183.333C113.333 182.449 112.982 181.601 112.357 180.976C111.732 180.351 110.884 180 110 180H16.6667C14.0169 179.992 11.478 178.936 9.60434 177.062C7.73069 175.189 6.67458 172.65 6.66667 170V66.6667H193.333V123.333C193.333 124.217 193.685 125.065 194.31 125.69C194.935 126.315 195.783 126.667 196.667 126.667C197.551 126.667 198.399 126.315 199.024 125.69C199.649 125.065 200 124.217 200 123.333V36.6667C200 32.2464 198.244 28.0072 195.118 24.8815C191.993 21.7559 187.754 20 183.333 20ZM146.667 13.3333C146.667 11.5652 147.369 9.86953 148.619 8.61929C149.87 7.36904 151.565 6.66667 153.333 6.66667C155.101 6.66667 156.797 7.36904 158.047 8.61929C159.298 9.86953 160 11.5652 160 13.3333V33.3333C160 35.1014 159.298 36.7971 158.047 38.0474C156.797 39.2976 155.101 40 153.333 40C151.565 40 149.87 39.2976 148.619 38.0474C147.369 36.7971 146.667 35.1014 146.667 33.3333V13.3333ZM93.3333 13.3333C93.3333 11.5652 94.0357 9.86953 95.286 8.61929C96.5362 7.36904 98.2319 6.66667 100 6.66667C101.768 6.66667 103.464 7.36904 104.714 8.61929C105.964 9.86953 106.667 11.5652 106.667 13.3333V33.3333C106.667 35.1014 105.964 36.7971 104.714 38.0474C103.464 39.2976 101.768 40 100 40C98.2319 40 96.5362 39.2976 95.286 38.0474C94.0357 36.7971 93.3333 35.1014 93.3333 33.3333V13.3333ZM40 13.3333C40 11.5652 40.7024 9.86953 41.9526 8.61929C43.2029 7.36904 44.8986 6.66667 46.6667 6.66667C48.4348 6.66667 50.1305 7.36904 51.3807 8.61929C52.631 9.86953 53.3333 11.5652 53.3333 13.3333V33.3333C53.3333 35.1014 52.631 36.7971 51.3807 38.0474C50.1305 39.2976 48.4348 40 46.6667 40C44.8986 40 43.2029 39.2976 41.9526 38.0474C40.7024 36.7971 40 35.1014 40 33.3333V13.3333ZM193.333 60H6.66667V36.6667C6.67458 34.0169 7.73069 31.478 9.60434 29.6043C11.478 27.7307 14.0169 26.6746 16.6667 26.6667H33.3333V33.3333C33.3333 36.8695 34.7381 40.2609 37.2386 42.7614C39.7391 45.2619 43.1304 46.6667 46.6667 46.6667C50.2029 46.6667 53.5943 45.2619 56.0948 42.7614C58.5952 40.2609 60 36.8695 60 33.3333V26.6667H86.6667V33.3333C86.6667 36.8695 88.0714 40.2609 90.5719 42.7614C93.0724 45.2619 96.4638 46.6667 100 46.6667C103.536 46.6667 106.928 45.2619 109.428 42.7614C111.929 40.2609 113.333 36.8695 113.333 33.3333V26.6667H140V33.3333C140 36.8695 141.405 40.2609 143.905 42.7614C146.406 45.2619 149.797 46.6667 153.333 46.6667C156.87 46.6667 160.261 45.2619 162.761 42.7614C165.262 40.2609 166.667 36.8695 166.667 33.3333V26.6667H183.333C185.983 26.6746 188.522 27.7307 190.396 29.6043C192.269 31.478 193.325 34.0169 193.333 36.6667V60Z" fill="#00E8FF"/>
<path d="M93.3333 90C93.3333 88.2319 92.6309 86.5362 91.3807 85.286C90.1304 84.0358 88.4347 83.3334 86.6666 83.3334H73.3333C71.5652 83.3334 69.8695 84.0358 68.6192 85.286C67.369 86.5362 66.6666 88.2319 66.6666 90V100C66.6666 101.768 67.369 103.464 68.6192 104.714C69.8695 105.964 71.5652 106.667 73.3333 106.667H86.6666C88.4347 106.667 90.1304 105.964 91.3807 104.714C92.6309 103.464 93.3333 101.768 93.3333 100V90ZM73.3333 100V90H86.6666V100H73.3333Z" fill="#00E8FF"/>
<path d="M53.3333 90C53.3333 88.2319 52.6309 86.5362 51.3807 85.286C50.1304 84.0358 48.4347 83.3334 46.6666 83.3334H33.3333C31.5652 83.3334 29.8695 84.0358 28.6192 85.286C27.369 86.5362 26.6666 88.2319 26.6666 90V100C26.6666 101.768 27.369 103.464 28.6192 104.714C29.8695 105.964 31.5652 106.667 33.3333 106.667H46.6666C48.4347 106.667 50.1304 105.964 51.3807 104.714C52.6309 103.464 53.3333 101.768 53.3333 100V90ZM33.3333 100V90H46.6666V100H33.3333Z" fill="#00E8FF"/>
<path d="M166.667 106.667C168.435 106.667 170.13 105.964 171.381 104.714C172.631 103.464 173.333 101.768 173.333 100V90C173.333 88.2319 172.631 86.5362 171.381 85.286C170.13 84.0358 168.435 83.3334 166.667 83.3334H153.333C151.565 83.3334 149.869 84.0358 148.619 85.286C147.369 86.5362 146.667 88.2319 146.667 90V100C146.667 101.768 147.369 103.464 148.619 104.714C149.869 105.964 151.565 106.667 153.333 106.667H166.667ZM153.333 90H166.667V100H153.333V90Z" fill="#00E8FF"/>
<path d="M93.3333 120C93.3333 118.232 92.6309 116.536 91.3807 115.286C90.1304 114.036 88.4347 113.333 86.6666 113.333H73.3333C71.5652 113.333 69.8695 114.036 68.6192 115.286C67.369 116.536 66.6666 118.232 66.6666 120V130C66.6666 131.768 67.369 133.464 68.6192 134.714C69.8695 135.964 71.5652 136.667 73.3333 136.667H86.6666C88.4347 136.667 90.1304 135.964 91.3807 134.714C92.6309 133.464 93.3333 131.768 93.3333 130V120ZM73.3333 130V120H86.6666V130H73.3333Z" fill="#00E8FF"/>
<path d="M53.3333 120C53.3333 118.232 52.6309 116.536 51.3807 115.286C50.1304 114.036 48.4347 113.333 46.6666 113.333H33.3333C31.5652 113.333 29.8695 114.036 28.6192 115.286C27.369 116.536 26.6666 118.232 26.6666 120V130C26.6666 131.768 27.369 133.464 28.6192 134.714C29.8695 135.964 31.5652 136.667 33.3333 136.667H46.6666C48.4347 136.667 50.1304 135.964 51.3807 134.714C52.6309 133.464 53.3333 131.768 53.3333 130V120ZM33.3333 130V120H46.6666V130H33.3333Z" fill="#00E8FF"/>
<path d="M86.6666 143.333H73.3333C71.5652 143.333 69.8695 144.036 68.6192 145.286C67.369 146.536 66.6666 148.232 66.6666 150V160C66.6666 161.768 67.369 163.464 68.6192 164.714C69.8695 165.964 71.5652 166.667 73.3333 166.667H86.6666C88.4347 166.667 90.1304 165.964 91.3807 164.714C92.6309 163.464 93.3333 161.768 93.3333 160V150C93.3333 148.232 92.6309 146.536 91.3807 145.286C90.1304 144.036 88.4347 143.333 86.6666 143.333ZM73.3333 160V150H86.6666V160H73.3333Z" fill="#00E8FF"/>
<path d="M113.333 106.667H126.667C128.435 106.667 130.13 105.964 131.381 104.714C132.631 103.464 133.333 101.768 133.333 100V90C133.333 88.2319 132.631 86.5362 131.381 85.286C130.13 84.0358 128.435 83.3334 126.667 83.3334H113.333C111.565 83.3334 109.869 84.0358 108.619 85.286C107.369 86.5362 106.667 88.2319 106.667 90V100C106.667 101.768 107.369 103.464 108.619 104.714C109.869 105.964 111.565 106.667 113.333 106.667ZM113.333 90H126.667V100H113.333V90Z" fill="#00E8FF"/>
<path d="M106.667 130C106.667 131.768 107.369 133.464 108.619 134.714C109.869 135.964 111.565 136.667 113.333 136.667C114.217 136.667 115.065 136.316 115.69 135.69C116.315 135.065 116.667 134.217 116.667 133.333C116.667 132.449 116.315 131.601 115.69 130.976C115.065 130.351 114.217 130 113.333 130V120H126.667C127.551 120 128.399 119.649 129.024 119.024C129.649 118.399 130 117.551 130 116.667C130 115.783 129.649 114.935 129.024 114.31C128.399 113.685 127.551 113.333 126.667 113.333H113.333C111.565 113.333 109.869 114.036 108.619 115.286C107.369 116.536 106.667 118.232 106.667 120V130Z" fill="#00E8FF"/>
<path d="M46.6666 143.333H33.3333C31.5652 143.333 29.8695 144.036 28.6192 145.286C27.369 146.536 26.6666 148.232 26.6666 150V160C26.6666 161.768 27.369 163.464 28.6192 164.714C29.8695 165.964 31.5652 166.667 33.3333 166.667H46.6666C48.4347 166.667 50.1304 165.964 51.3807 164.714C52.6309 163.464 53.3333 161.768 53.3333 160V150C53.3333 148.232 52.6309 146.536 51.3807 145.286C50.1304 144.036 48.4347 143.333 46.6666 143.333V143.333ZM33.3333 160V150H46.6666V160H33.3333Z" fill="#00E8FF"/>
<path d="M156.667 113.333C148.096 113.333 139.718 115.875 132.592 120.636C125.466 125.398 119.912 132.166 116.632 140.084C113.352 148.002 112.494 156.715 114.166 165.121C115.838 173.526 119.965 181.248 126.025 187.308C132.086 193.368 139.807 197.495 148.213 199.167C156.619 200.839 165.331 199.981 173.25 196.701C181.168 193.422 187.935 187.868 192.697 180.741C197.458 173.615 200 165.237 200 156.667C199.987 145.178 195.417 134.164 187.293 126.04C179.17 117.916 168.155 113.347 156.667 113.333V113.333ZM156.667 193.333C149.415 193.333 142.326 191.183 136.296 187.154C130.266 183.125 125.566 177.398 122.791 170.698C120.016 163.998 119.29 156.626 120.704 149.513C122.119 142.401 125.611 135.867 130.739 130.739C135.867 125.612 142.401 122.119 149.513 120.705C156.626 119.29 163.998 120.016 170.698 122.791C177.398 125.566 183.125 130.266 187.154 136.296C191.183 142.326 193.333 149.415 193.333 156.667C193.322 166.388 189.455 175.707 182.581 182.581C175.707 189.455 166.388 193.322 156.667 193.333Z" fill="#00E8FF"/>
<path d="M175.927 142.693L150 168.62L138.217 156.833C137.588 156.226 136.746 155.89 135.872 155.898C134.998 155.905 134.162 156.256 133.544 156.874C132.926 157.492 132.575 158.328 132.568 159.202C132.56 160.076 132.896 160.918 133.503 161.547L147.643 175.69C148.268 176.315 149.116 176.666 150 176.666C150.884 176.666 151.732 176.315 152.357 175.69L180.64 147.407C181.247 146.778 181.583 145.936 181.576 145.062C181.568 144.188 181.217 143.352 180.599 142.734C179.981 142.116 179.145 141.765 178.271 141.758C177.397 141.75 176.555 142.086 175.927 142.693Z" fill="#00E8FF"/>
</svg>
