<svg width="201" height="201" viewBox="0 0 201 201" fill="none" xmlns="http://www.w3.org/2000/svg">
<path d="M124.971 54.7297C124.97 49.8131 123.511 45.007 120.78 40.9193C118.048 36.8316 114.165 33.6458 109.623 31.7648C105.08 29.8837 100.082 29.3919 95.2601 30.3515C90.4382 31.3111 86.0092 33.679 82.5329 37.1558C79.0567 40.6326 76.6895 45.0622 75.7306 49.8844C74.7717 54.7066 75.2642 59.7049 77.1458 64.2472C79.0274 68.7895 82.2136 72.6719 86.3015 75.4033C90.3894 78.1348 95.1955 79.5927 100.112 79.5927C106.703 79.5847 113.022 76.9625 117.682 72.3014C122.342 67.6403 124.963 61.321 124.971 54.7297V54.7297ZM81.1411 54.7297C81.1418 50.9776 82.2549 47.31 84.3399 44.1906C86.4248 41.0712 89.3879 38.6401 92.8544 37.2047C96.3209 35.7693 100.135 35.3941 103.815 36.1265C107.495 36.8589 110.875 38.666 113.527 41.3194C116.18 43.9727 117.987 47.3531 118.718 51.0331C119.45 54.7132 119.074 58.5275 117.638 61.9939C116.202 65.4603 113.771 68.4231 110.651 70.5075C107.532 72.592 103.864 73.7046 100.112 73.7046C95.0817 73.6988 90.2593 71.6977 86.7027 68.1404C83.1462 64.583 81.146 59.7601 81.1411 54.7297V54.7297Z" fill="#00E8FF"/>
<path d="M199.917 196.125L175.918 133.206C175.705 132.649 175.328 132.17 174.837 131.832C174.346 131.494 173.764 131.312 173.167 131.312H127.747C128.024 130.86 128.3 130.421 128.578 129.966C146.055 101.03 154.849 75.7182 154.723 54.7431C154.726 40.2583 148.974 26.3659 138.734 16.1219C128.494 5.87787 114.604 0.121473 100.12 0.119019C85.6354 0.116565 71.7435 5.86825 61.4998 16.1088C51.2562 26.3493 45.5 40.2398 45.4976 54.7246C45.3714 75.7182 54.1662 101.034 71.6432 129.966C71.9208 130.426 72.1967 130.865 72.4743 131.312H27.0533C26.457 131.312 25.8748 131.494 25.3837 131.832C24.8926 132.17 24.5157 132.649 24.3028 133.206L0.3071 196.125C0.136122 196.571 0.0762503 197.052 0.132657 197.526C0.189064 198 0.360053 198.453 0.630851 198.846C0.901649 199.24 1.26411 199.561 1.68692 199.783C2.10973 200.004 2.58017 200.12 3.05759 200.119H197.167C197.644 200.12 198.114 200.004 198.537 199.783C198.96 199.561 199.322 199.24 199.593 198.846C199.864 198.453 200.035 198 200.091 197.526C200.148 197.052 200.088 196.571 199.917 196.125V196.125ZM51.3872 54.7296C51.3883 48.3307 52.6497 41.9947 55.0993 36.0834C57.549 30.172 61.139 24.801 65.6643 20.2771C70.1896 15.7532 75.5616 12.1649 81.4736 9.71722C87.3856 7.26949 93.7218 6.01024 100.12 6.01134C106.519 6.01244 112.855 7.27389 118.766 9.72366C124.677 12.1734 130.048 15.7635 134.572 20.289C139.095 24.8145 142.684 30.1867 145.131 36.0989C147.579 42.0111 148.838 48.3476 148.837 54.7464C149.089 96.5655 109.994 148.144 100.112 160.512C90.2305 148.149 51.1331 96.584 51.3872 54.7296V54.7296ZM97.8696 167.073C98.146 167.398 98.4897 167.659 98.8769 167.838C99.264 168.017 99.6855 168.11 100.112 168.11C100.539 168.11 100.96 168.017 101.347 167.838C101.734 167.659 102.078 167.398 102.355 167.073C110.171 157.551 117.417 147.575 124.056 137.197H171.137L174.905 147.081L82.9009 179.803L50.107 137.192H76.1651C82.8044 147.572 90.0519 157.549 97.8696 167.073V167.073ZM82.7983 186.083H82.8151L137.702 166.569L158.991 194.231H59.9061L82.7983 186.083ZM29.0838 137.192H42.6764L77.0651 181.878L42.3383 194.229H7.33052L29.0838 137.192ZM166.428 194.231L143.534 164.484L177.011 152.578L192.897 194.231H166.428Z" fill="#00E8FF"/>
</svg>
