<svg width="200" height="201" viewBox="0 0 200 201" fill="none" xmlns="http://www.w3.org/2000/svg">
<path d="M99.9999 23.3547C57.947 23.3547 23.7332 60.9876 23.7332 107.242C23.7332 153.499 57.9474 191.132 99.9999 191.132C142.055 191.132 176.267 153.499 176.267 107.242C176.267 60.9876 142.053 23.3547 99.9999 23.3547ZM99.9999 175.929C65.5692 175.929 37.5577 145.116 37.5577 107.245C37.5577 69.3741 65.5688 38.5636 99.9999 38.5636C134.431 38.5636 162.442 69.3741 162.442 107.245C162.442 145.118 134.431 175.929 99.9999 175.929Z" fill="#00E8FF"/>
<path d="M121.198 104.708H102.765V75.3095C102.765 71.11 99.6706 67.7063 95.8527 67.7063C92.0347 67.7063 88.9402 71.11 88.9402 75.3095V112.311C88.9402 116.511 92.0347 119.915 95.8527 119.915H121.198C125.016 119.915 128.111 116.511 128.111 112.311C128.11 108.112 125.016 104.708 121.198 104.708Z" fill="#00E8FF"/>
<path d="M60.8458 161.657C58.0071 158.847 53.636 159.103 51.0833 162.222L30.3458 187.566C27.7903 190.686 28.0232 195.494 30.8595 198.302C32.1798 199.612 33.8341 200.256 35.4817 200.256C37.3735 200.256 39.2583 199.407 40.6224 197.737L61.3598 172.393C63.9149 169.273 63.6821 164.465 60.8458 161.657Z" fill="#00E8FF"/>
<path d="M169.656 187.569L148.918 162.225C146.37 159.103 141.997 158.849 139.158 161.66C136.319 164.468 136.091 169.276 138.644 172.396L159.382 197.739C160.743 199.407 162.628 200.256 164.52 200.256C166.165 200.256 167.82 199.612 169.142 198.304C171.981 195.496 172.209 190.688 169.656 187.569Z" fill="#00E8FF"/>
<path d="M59.6732 11.3368C45.938 -3.45619 23.7978 -3.43342 10.3209 11.3927C3.61546 18.7651 -0.0482073 28.52 0.000230073 38.8601C0.0510112 49.076 3.73304 58.641 10.3713 65.793C11.717 67.2401 13.4611 67.9624 15.2076 67.9624C16.9771 67.9624 18.7467 67.2173 20.0947 65.7372L59.7259 22.1461C61.0302 20.7093 61.7583 18.76 61.7489 16.7303C61.7399 14.6997 60.9931 12.7586 59.6732 11.3368ZM15.9658 48.7718C14.5811 45.7028 13.8412 42.3068 13.8252 38.7789C13.7951 32.5343 16.0209 26.624 20.0947 22.1431C24.1592 17.6751 29.5326 15.4422 34.9357 15.4422C38.0947 15.4422 41.2654 16.2048 44.1869 17.7305L15.9658 48.7718Z" fill="#00E8FF"/>
<path d="M189.679 11.39C176.2 -3.43351 154.059 -3.45886 140.324 11.3342C139.006 12.7559 138.258 14.6975 138.248 16.7272C138.239 18.7573 138.969 20.7088 140.274 22.143L179.905 65.7341C181.253 67.2194 183.022 67.9618 184.792 67.9618C186.538 67.9618 188.285 67.2396 189.628 65.7873C196.269 58.6379 199.951 49.0733 199.999 38.857C200.048 28.5199 196.382 18.765 189.679 11.39ZM184.034 48.7717L155.813 17.7309C163.734 13.5946 173.465 15.0623 179.905 22.1456C183.979 26.6264 186.205 32.5338 186.175 38.7814C186.158 42.3067 185.419 45.7053 184.034 48.7717Z" fill="#00E8FF"/>
</svg>
